<?xml version="1.0" encoding="UTF-8"?>
<!-- Repository: https://github.com/ZiroKyl/RingSync -->
<!-- Article:    http://9b.asoiu.com/?p=3704 -->
<svg xmlns="http://www.w3.org/2000/svg" xmlns:xlink="http://www.w3.org/1999/xlink" xml:space="preserve" height="100%" viewBox="0 0 9384 7482" version="1.1" baseProfile="full" style="clip-rule:evenodd;fill-rule:evenodd;image-rendering:optimizeQuality;shape-rendering:geometricPrecision;text-rendering:optimizeLegibility">
	<defs>
		<style type="text/css"><![CDATA[
				.str2 {stroke:black;stroke-width:20}
				.str7 {stroke:black;stroke-width:20;stroke-linecap:round;stroke-linejoin:round}
				.str1 {stroke:black;stroke-width:25;stroke-linecap:round;stroke-linejoin:round}
				.str4 {stroke:black;stroke-width:50}
				.str5 {stroke:black;stroke-width:50;stroke-linecap:round;stroke-linejoin:round}
				.str6 {stroke:white;stroke-width:65;stroke-linecap:round;stroke-linejoin:round}
				.str3 {stroke:white;stroke-width:100}
				.str0 {stroke:white;stroke-width:100;stroke-linecap:round;stroke-linejoin:round}
				.fil0 {fill:none}
				.fil5 {fill:black}
				.fil3 {fill:#0178FF}
				.fil7 {fill:#CCCCCC}
				.fil2 {fill:#FF9E01}
				.fil1 {fill:white}
				.fil4 {fill:black;fill-rule:nonzero}
				.fil6 {fill:white;fill-rule:nonzero}
		]]></style>
	</defs>
	<g>
		<g>
			<g>
				<path class="fil0 str0" d="M5396 713l857 1072c40,31 65,79 65,133l0 382c0,93 -76,170 -170,170l-136 0 0 74 -293 0 0 -74 -2054 0 0 74 -293 0 0 -74 -168 0c-93,0 -170,-76 -170,-170l0 -382c0,-47 19,-89 50,-120l282 -353 377 -472 209 -261 722 0 723 0z"/>
				<path class="fil1" d="M5396 713l857 1072c40,31 65,79 65,133l0 382c0,93 -76,170 -170,170l-136 0 0 74 -293 0 0 -74 -2054 0 0 74 -293 0 0 -74 -168 0c-93,0 -170,-76 -170,-170l0 -382c0,-47 19,-89 50,-120l282 -353 377 -472 209 -261 722 0 723 0z"/>
			</g>
			<g>
				<g>
					<path class="fil2" d="M5935 1700c-38,0 -76,0 -114,0 5,8 9,16 14,24 5,8 10,16 15,24 39,0 77,0 117,0 -5,-8 -11,-16 -16,-24 -5,-8 -10,-16 -16,-24z"/>
					<path class="fil3" d="M5764 1699c-38,0 -76,0 -114,0 4,8 8,16 12,24 4,8 8,16 12,24 39,0 77,0 116,0 -5,-8 -9,-16 -14,-24 -5,-8 -9,-16 -13,-24z"/>
				</g>
				<g>
					<g>
						<path class="fil2" d="M5385 1700c-38,0 -76,0 -114,0 2,8 5,16 7,24 2,8 5,16 7,24 39,0 78,0 117,0 -3,-8 -6,-16 -9,-24 -3,-8 -6,-16 -9,-24z"/>
						<path class="fil3" d="M5213 1700c-38,0 -76,0 -114,0 2,8 3,16 5,24 2,8 4,16 5,24 39,0 78,0 117,0 -2,-8 -5,-16 -7,-24 -2,-8 -4,-16 -7,-24z"/>
					</g>
					<g>
						<path class="fil2" d="M4834 1700c-38,0 -76,0 -114,0 0,8 0,16 0,24 0,8 0,16 0,24 39,0 78,0 117,0 -1,-8 -1,-16 -2,-24 -1,-8 -1,-16 -2,-24z"/>
						<path class="fil3" d="M4663 1700c-38,0 -76,0 -114,0 -1,8 -1,16 -2,24 -1,8 -1,16 -2,24 39,0 78,0 117,0 0,-8 0,-16 0,-24 0,-8 0,-16 0,-24z"/>
					</g>
					<g>
						<path class="fil2" d="M4284 1701c-38,0 -76,0 -114,0 -2,8 -4,16 -7,24 -2,8 -4,16 -7,24 39,0 78,0 117,0 2,-8 4,-16 5,-24 2,-8 3,-16 5,-24z"/>
						<path class="fil3" d="M4112 1701c-38,0 -76,0 -114,0 -3,8 -6,16 -9,24 -3,8 -6,16 -9,24 39,0 78,0 117,0 3,-8 5,-16 7,-24 2,-8 5,-16 7,-24z"/>
					</g>
				</g>
				<g>
					<path class="fil2" d="M3733 1701c-38,0 -76,0 -114,0 -4,8 -9,16 -14,24 -5,8 -9,16 -14,24 39,0 78,0 117,0 4,-8 8,-16 12,-24 4,-8 8,-16 12,-24z"/>
					<path class="fil3" d="M3561 1701c-38,0 -76,0 -113,0 -5,8 -10,16 -16,24 -5,8 -11,16 -16,24 39,0 77,0 116,0 5,-8 10,-16 15,-24 5,-8 10,-16 14,-24z"/>
				</g>
				<g>
					<path class="fil0 str1" d="M3915 1591c44,0 86,9 113,26 27,18 41,46 28,84"/>
					<g>
						<path class="fil4" d="M3665 1696l22 12 0 1 0 1 0 1 0 0 0 0 0 0 0 0 0 0 0 0 -1 0 -1 0 -1 0 -1 0 -1 0 -1 0 -1 0 -1 0 -1 0 -1 0 -1 0 -1 0 -1 0 -1 0 -1 0 -1 0 -1 0 -1 0 -1 0 -1 0 -1 0 -1 0 -1 0 -1 0 -1 0 -1 0 0 0 0 0 0 0 0 0 0 0 0 0 0 -1 0 -1 0 -1 0 -1 0 -1 0 -1 0 -1 0 -1 0 -1 0 -1 0 -1 0 -1 0 -1 0 -1 0 -1 0 -1 0 -1 0 -1 0 -1 0 -1 0 -1 0 -1 0 -1zm109 -90l10 23 0 0 -4 2 -4 2 -4 2 -4 2 -4 2 -4 2 -4 2 -4 2 -4 2 -3 2 -3 2 -3 2 -3 2 -3 2 -3 2 -3 2 -3 3 -3 3 -3 3 -3 3 -3 3 -3 3 -3 3 -3 3 -2 3 -2 3 -2 3 -2 3 -2 3 -2 3 -2 3 -2 3 -22 -12 2 -4 2 -4 2 -4 2 -4 3 -4 3 -4 3 -3 3 -3 3 -3 3 -3 3 -3 3 -3 3 -3 3 -3 3 -3 3 -3 4 -3 4 -3 4 -3 4 -3 4 -2 4 -2 4 -2 4 -2 4 -2 4 -2 4 -2 4 -2 4 -2 4 -2 4 -2 4 -2 0 0zm141 -27l0 25 -4 0 -4 0 -4 0 -4 0 -4 0 -4 0 -4 0 -4 0 -4 0 -4 0 -4 1 -4 1 -4 1 -4 1 -4 1 -4 1 -4 1 -4 1 -4 1 -4 1 -4 1 -4 1 -4 1 -4 1 -4 1 -4 1 -4 1 -4 1 -4 1 -4 1 -4 2 -4 2 -10 -23 4 -2 4 -2 4 -2 4 -2 4 -1 4 -1 4 -1 4 -1 4 -1 4 -1 4 -1 4 -1 4 -1 4 -1 4 -1 5 -1 5 -1 4 -1 5 -1 5 -1 5 -1 4 -1 5 -1 4 0 4 0 4 0 4 0 4 0 4 0 4 0 4 0 4 0zm55 13l-75 37 0 -75 75 37zm-55 12l0 -25 1 0 1 0 1 0 1 0 1 0 1 0 1 0 1 0 1 0 1 0 1 0 1 0 0 0 0 0 0 0 0 0 0 0 0 0 0 0 0 0 0 1 0 1 0 1 0 1 0 1 0 1 0 1 0 1 0 1 0 1 0 1 0 1 0 1 0 1 0 1 0 1 0 1 0 1 0 1 0 1 0 1 0 1 0 1 0 1 0 0 0 0 0 0 0 0 0 0 0 0 0 0 0 0 -1 0 -1 0 -1 0 -1 0 -1 0 -1 0 -1 0 -1 0 -1 0 -1 0 -1 0 -1 0z"/>
					</g>
				</g>
				<g>
					<path class="fil0 str1" d="M4433 1590c44,0 88,9 120,26 33,18 55,46 53,84"/>
					<g>
						<path class="fil4" d="M4215 1698l24 6 0 1 0 1 0 1 0 1 0 1 0 1 0 1 0 1 0 0 0 0 0 0 0 0 0 0 0 0 0 0 -1 0 -1 0 -1 0 -1 0 -1 0 -1 0 -1 0 -1 0 -1 0 -1 0 -1 0 -1 0 -1 0 -1 0 -1 0 -1 0 -1 0 -1 0 -1 0 -1 0 -1 0 -1 0 -1 0 -1 0 -1 0 0 0 0 0 0 0 0 0 0 0 0 0 0 0 0 -1 0 -1 0 -1 0 -1 0 -1 0 -1 0 -1 0 -1 0 -1 0 -1 0 -1 0 -1 0 -1 0 -1 0 -1 0 -1 0 -1zm84 -93l11 23 0 0 -3 2 -3 2 -3 2 -3 2 -3 2 -3 2 -3 2 -3 2 -3 2 -3 2 -3 2 -3 2 -3 2 -2 2 -2 2 -2 2 -2 2 -2 2 -2 2 -2 3 -2 3 -2 3 -2 3 -2 3 -2 3 -1 3 -1 3 -1 3 -1 3 -1 3 -1 3 -1 3 -24 -6 1 -4 1 -4 1 -4 1 -4 2 -4 2 -4 2 -4 2 -3 2 -3 2 -3 2 -3 2 -3 2 -3 3 -3 3 -3 3 -3 3 -3 3 -3 3 -3 3 -3 3 -3 3 -2 3 -2 3 -2 3 -2 3 -2 4 -2 4 -2 4 -2 4 -2 4 -2 4 -2 0 0zm134 -28l0 25 -4 0 -4 0 -4 0 -4 0 -4 0 -4 0 -4 0 -4 0 -4 0 -4 0 -4 1 -4 1 -4 1 -4 1 -4 1 -4 1 -4 1 -4 1 -4 1 -4 1 -4 1 -4 1 -4 1 -4 1 -4 1 -4 1 -4 1 -4 1 -4 1 -3 1 -3 2 -3 2 -11 -23 4 -2 4 -2 4 -2 4 -2 4 -2 4 -1 4 -1 4 -1 4 -1 4 -1 4 -1 4 -1 4 -1 4 -1 4 -1 4 -1 4 -1 4 -1 4 -1 4 -1 4 -1 4 -1 4 -1 4 0 4 0 4 0 4 0 4 0 4 0 4 0 4 0 4 0zm55 13l-75 37 0 -75 75 37zm-55 12l0 -25 1 0 1 0 1 0 1 0 1 0 1 0 1 0 1 0 1 0 1 0 1 0 1 0 0 0 0 0 0 0 0 0 0 0 0 0 0 0 0 0 0 1 0 1 0 1 0 1 0 1 0 1 0 1 0 1 0 1 0 1 0 1 0 1 0 1 0 1 0 1 0 1 0 1 0 1 0 1 0 1 0 1 0 1 0 1 0 1 0 0 0 0 0 0 0 0 0 0 0 0 0 0 0 0 -1 0 -1 0 -1 0 -1 0 -1 0 -1 0 -1 0 -1 0 -1 0 -1 0 -1 0 -1 0z"/>
					</g>
				</g>
				<g>
					<path class="fil0 str1" d="M4951 1590c44,0 91,9 128,26 38,18 68,46 78,84"/>
					<g>
						<path class="fil4" d="M4765 1701l25 -1 0 1 0 1 0 1 0 1 0 1 0 1 0 1 0 1 0 1 0 1 0 1 0 1 0 1 0 0 0 0 0 0 0 0 0 0 0 0 0 0 0 0 -1 0 -1 0 -1 0 -1 0 -1 0 -1 0 -1 0 -1 0 -1 0 -1 0 -1 0 -1 0 -1 0 -1 0 -1 0 -1 0 -1 0 -1 0 -1 0 -1 0 -1 0 -1 0 -1 0 -1 0 0 0 0 0 0 0 0 0 0 0 0 0 0 0 0 0 0 -1 0 -1 0 -1 0 -1 0 -1 0 -1 0 -1 0 -1 0 -1 0 -1 0 -1zm59 -96l12 22 0 0 -3 2 -3 2 -3 2 -3 2 -3 2 -2 2 -2 2 -2 2 -2 2 -2 2 -2 2 -2 2 -2 2 -2 2 -2 2 -2 2 -1 2 -1 2 -1 2 -1 2 -1 2 -1 2 -1 3 -1 3 -1 3 -1 3 0 3 0 3 0 3 0 3 0 3 0 3 -25 1 0 -4 0 -4 0 -4 0 -4 1 -4 1 -4 1 -4 1 -4 1 -4 1 -4 1 -3 1 -3 2 -3 2 -3 2 -3 2 -3 2 -3 2 -3 2 -3 2 -3 2 -3 3 -3 3 -3 3 -2 3 -2 3 -2 3 -2 3 -2 3 -2 3 -2 3 -2 3 -2 0 0zm127 -28l0 25 -4 0 -4 0 -4 0 -4 0 -4 0 -4 0 -4 0 -4 0 -4 0 -4 0 -4 1 -4 1 -4 1 -4 1 -4 1 -4 1 -4 1 -4 1 -4 1 -4 1 -3 1 -3 1 -3 1 -3 1 -3 1 -3 1 -3 1 -3 1 -3 1 -3 1 -3 1 -3 2 -12 -22 3 -2 3 -2 3 -2 3 -2 4 -2 4 -1 4 -1 4 -1 4 -1 4 -1 4 -1 4 -1 4 -1 4 -1 4 -1 4 -1 4 -1 4 -1 4 -1 4 -1 4 -1 4 -1 4 -1 4 0 4 0 4 0 4 0 4 0 4 0 4 0 4 0 4 0zm55 13l-75 37 0 -75 75 37zm-55 12l0 -25 1 0 1 0 1 0 1 0 1 0 1 0 1 0 1 0 1 0 1 0 1 0 1 0 0 0 0 0 0 0 0 0 0 0 0 0 0 0 0 0 0 1 0 1 0 1 0 1 0 1 0 1 0 1 0 1 0 1 0 1 0 1 0 1 0 1 0 1 0 1 0 1 0 1 0 1 0 1 0 1 0 1 0 1 0 1 0 1 0 0 0 0 0 0 0 0 0 0 0 0 0 0 0 0 -1 0 -1 0 -1 0 -1 0 -1 0 -1 0 -1 0 -1 0 -1 0 -1 0 -1 0 -1 0z"/>
					</g>
				</g>
				<g>
					<path class="fil0 str1" d="M5469 1589c44,0 93,9 136,26 43,18 81,46 102,84"/>
					<g>
						<path class="fil4" d="M5316 1704l24 -8 0 1 0 1 0 1 0 1 0 1 0 1 0 1 0 1 0 1 0 1 0 1 0 1 0 1 0 1 0 1 0 1 0 1 0 1 0 1 0 0 0 0 0 0 0 0 0 0 0 0 0 0 -1 0 -1 0 -1 0 -1 0 -1 0 -1 0 -1 0 -1 0 -1 0 -1 0 -1 0 -1 0 -1 0 -1 0 -1 0 -1 0 -1 0 -1 0 -1 0 -1 0 -1 0 -1 0 -1 0 -1 0 -1 0 0 0 0 0 0 0 0 0 0 0 0 0 0 0 0 -1 0 -1 0 -1 0 -1 0 -1 0 -1zm33 -99l14 21 0 0 -2 2 -2 2 -2 2 -2 2 -2 2 -2 2 -2 2 -2 2 -1 2 -1 2 -1 2 -1 2 -1 2 -1 2 -1 2 -1 2 -1 2 -1 2 -1 2 0 2 0 2 0 2 0 2 0 3 0 3 0 3 0 3 0 3 1 3 1 3 1 3 1 3 -24 8 -1 -4 -1 -4 -1 -4 -1 -4 -1 -4 0 -4 0 -4 0 -4 0 -4 0 -4 0 -4 1 -3 1 -3 1 -3 1 -3 1 -3 1 -3 1 -3 2 -3 2 -3 2 -3 2 -3 2 -3 2 -3 2 -2 2 -2 2 -2 3 -2 3 -2 3 -2 3 -2 3 -2 0 0zm120 -28l0 25 -4 0 -4 0 -4 0 -4 0 -4 0 -4 0 -4 0 -4 0 -4 0 -4 0 -4 1 -4 1 -4 1 -4 1 -4 1 -3 1 -3 1 -3 1 -3 1 -3 1 -3 1 -3 1 -3 1 -3 1 -3 1 -3 1 -3 1 -3 1 -3 1 -2 1 -2 1 -2 1 -14 -21 3 -2 3 -2 3 -2 3 -2 3 -2 3 -2 3 -1 3 -1 3 -1 3 -1 4 -1 4 -1 4 -1 4 -1 4 -1 4 -1 4 -1 4 -1 4 -1 4 -1 4 -1 4 -1 4 -1 4 0 4 0 4 0 4 0 4 0 4 0 4 0 4 0 4 0zm55 13l-75 37 0 -75 75 37zm-55 12l0 -25 1 0 1 0 1 0 1 0 1 0 1 0 1 0 1 0 1 0 1 0 1 0 1 0 0 0 0 0 0 0 0 0 0 0 0 0 0 0 0 0 0 1 0 1 0 1 0 1 0 1 0 1 0 1 0 1 0 1 0 1 0 1 0 1 0 1 0 1 0 1 0 1 0 1 0 1 0 1 0 1 0 1 0 1 0 1 0 1 0 0 0 0 0 0 0 0 0 0 0 0 0 0 0 0 -1 0 -1 0 -1 0 -1 0 -1 0 -1 0 -1 0 -1 0 -1 0 -1 0 -1 0 -1 0z"/>
					</g>
				</g>
			</g>
			<g>
				<path class="fil5 str2" d="M6148 1749l-2945 0c-93,0 -170,76 -170,170l0 382c0,93 76,170 170,170l168 0 0 74 293 0 0 -74 2054 0 0 74 293 0 0 -74 136 0c93,0 170,-76 170,-170l0 -382c0,-93 -76,-170 -170,-170z"/>
				<path class="fil1" d="M3416 1991l296 0c25,0 45,20 45,45l0 171c0,25 -20,45 -45,45l-296 0c-25,0 -45,-20 -45,-45l0 -171c0,-25 20,-45 45,-45z"/>
				<g>
					<path class="fil1" d="M3980 1991c99,0 198,0 296,0 25,0 45,20 45,45 0,57 0,114 0,171 0,25 -20,45 -45,45 -99,0 -198,0 -296,0 -25,0 -45,-20 -45,-45 0,-57 0,-114 0,-171 0,-25 20,-45 45,-45z"/>
					<path class="fil1" d="M4544 1991c99,0 198,0 296,0 25,0 45,20 45,45 0,57 0,114 0,171 0,25 -20,45 -45,45 -99,0 -198,0 -296,0 -25,0 -45,-20 -45,-45 0,-57 0,-114 0,-171 0,-25 20,-45 45,-45z"/>
					<path class="fil1" d="M5107 1991c99,0 198,0 296,0 25,0 45,20 45,45 0,57 0,114 0,171 0,25 -20,45 -45,45 -99,0 -198,0 -296,0 -25,0 -45,-20 -45,-45 0,-57 0,-114 0,-171 0,-25 20,-45 45,-45z"/>
				</g>
				<path class="fil1" d="M5671 1991l296 0c25,0 45,20 45,45l0 171c0,25 -20,45 -45,45l-296 0c-25,0 -45,-20 -45,-45l0 -171c0,-25 20,-45 45,-45z"/>
				<g>
					<polygon class="fil2" points="5968,2066 5851,2066 5851,2169 5968,2169 "/>
					<polygon class="fil3" points="5792,2066 5676,2066 5676,2169 5792,2169 "/>
				</g>
				<g>
					<g>
						<path class="fil2" d="M5403 2067c-39,0 -78,0 -116,0 0,34 0,68 0,103 39,0 78,0 116,0 0,-34 0,-68 0,-103z"/>
						<path class="fil3" d="M5227 2067c-39,0 -78,0 -116,0 0,34 0,68 0,103 39,0 78,0 116,0 0,-34 0,-68 0,-103z"/>
					</g>
					<g>
						<path class="fil2" d="M4838 2068c-39,0 -78,0 -116,0 0,34 0,68 0,103 39,0 78,0 116,0 0,-34 0,-68 0,-103z"/>
						<path class="fil3" d="M4662 2068c-39,0 -78,0 -116,0 0,34 0,68 0,103 39,0 78,0 116,0 0,-34 0,-68 0,-103z"/>
					</g>
					<g>
						<path class="fil2" d="M4273 2068c-39,0 -78,0 -116,0 0,34 0,68 0,103 39,0 78,0 116,0 0,-34 0,-68 0,-103z"/>
						<path class="fil3" d="M4098 2068c-39,0 -78,0 -116,0 0,34 0,68 0,103 39,0 78,0 116,0 0,-34 0,-68 0,-103z"/>
					</g>
				</g>
				<g>
					<polygon class="fil2" points="3708,2069 3592,2069 3592,2172 3708,2172 "/>
					<polygon class="fil3" points="3533,2069 3416,2069 3416,2172 3533,2172 "/>
				</g>
				<g>
					<path class="fil5 str2" d="M3365 1446c435,0 871,0 1306,0 435,0 871,0 1307,0 -155,-194 -276,-348 -375,-472 -81,-102 -149,-188 -207,-261 -241,0 -482,0 -723,0 -241,0 -482,0 -722,0 -58,73 -127,159 -209,261 -99,124 -222,278 -377,472z"/>
					<path class="fil6" d="M4673 835c118,0 235,0 353,0 5,16 11,32 17,49 68,-26 133,-51 195,-75 -84,-23 -165,-44 -242,-65 4,13 9,27 14,40 -112,0 -224,0 -335,0 0,16 0,33 0,50zm176 0m184 24m109 -14m-31 -69m-110 -12m-161 21m-168 24"/>
					<path class="fil6" d="M4672 1081c146,0 291,0 437,0 8,24 17,50 26,76 82,-41 159,-79 232,-115 -107,-34 -208,-66 -304,-97 7,19 13,39 20,60 -137,0 -274,0 -411,0 0,24 0,50 0,76zm219 0m231 37m135 -21m-48 -106m-136 -17m-195 31m-206 37"/>
					<path class="fil6" d="M4673 945c-130,0 -261,0 -391,0 -7,19 -14,39 -21,60 -74,-32 -145,-63 -211,-92 94,-27 184,-54 270,-79 -5,16 -11,32 -17,49 123,0 246,0 370,0 0,20 0,40 0,61zm-195 0m-205 29m-121 -17m39 -85m122 -14m176 25m185 30"/>
					<path class="fil6" d="M4672 1255c-166,0 -331,0 -497,0 -11,32 -22,65 -34,99 -91,-53 -176,-103 -255,-149 124,-43 240,-84 349,-123 -8,24 -17,50 -26,76 154,0 309,0 463,0 0,31 0,64 0,97zm-249 0m-265 48m-152 -27m62 -135m154 -22m218 39m232 47"/>
				</g>
				<line class="fil0 str2" x1="3951" y1="713" x2="3083" y2= "1799" />
				<line class="fil0 str2" x1="5396" y1="713" x2="6263" y2= "1799" />
			</g>
		</g>
		<g>
			<polygon class="fil1 str3" points="3374,4169 3374,7432 1040,7432 1040,4169 2032,4169 2032,4108 2383,4108 2383,4169 "/>
			<path id="HDD" class="fil5" d="M2753 5359l-1082 0c-28,0 -50,22 -50,50l0 1525c0,28 22,50 50,50l1082 0c28,0 50,-22 50,-50l0 -1525c0,-28 -22,-50 -50,-50zm-485 677c0,-32 -26,-58 -58,-58 -32,0 -58,26 -58,58 0,32 26,58 58,58 32,0 58,-26 58,-58zm-61 -236c-130,0 -236,106 -236,236 0,130 106,236 236,236 130,0 236,-106 236,-236 0,-130 -106,-236 -236,-236zm3 408c-95,0 -172,-77 -172,-172 0,-95 77,-172 172,-172 95,0 172,77 172,172 0,95 -77,172 -172,172zm-110 271c0,0 -44,26 -49,29l-15 9c-54,33 -78,50 -78,98 0,63 51,114 114,114 50,0 64,-22 100,-74 4,-6 9,-13 13,-20 4,-5 29,-43 29,-43l178 -284 -291 171zm-385 -1053c27,0 48,22 48,48 0,27 -22,48 -48,48 -27,0 -48,-22 -48,-48 0,-27 22,-48 48,-48zm-2 1505c-27,0 -48,-22 -48,-48 0,-27 22,-48 48,-48 27,0 48,22 48,48 0,27 -22,48 -48,48zm546 -310c0,1 -26,40 -30,45 -5,7 -9,13 -13,19 -37,55 -66,99 -146,99 -93,0 -169,-76 -169,-169 0,-62 30,-95 67,-121 -166,-86 -280,-259 -280,-459 0,-285 231,-517 517,-517 285,0 517,231 517,517 0,250 -177,458 -413,506l-51 81zm444 310c-27,0 -48,-22 -48,-48 0,-27 22,-48 48,-48 27,0 48,22 48,48 0,27 -22,48 -48,48zm0 -1409c-27,0 -48,-22 -48,-48 0,-27 22,-48 48,-48 27,0 48,22 48,48 0,27 -22,48 -48,48z"/>
			<rect class="fil0 str2" x="1040" y="4169" width="2335" height="3263"/>
			<g>
				<path class="fil4" d="M2143 4229l-50 0 0 -1 0 -1 0 -1 0 -1 0 -1 0 -1 0 -1 0 -1 1 -1 1 -1 1 -1 1 -1 1 -1 1 -1 1 -1 1 -1 1 -1 1 -1 1 -1 1 -1 1 -1 1 -1 1 -1 1 -1 1 0 1 0 1 0 1 0 1 0 1 0 1 0 1 0 1 0 1 0 1 0 1 0 1 0 1 0 1 0 1 0 1 1 1 1 1 1 1 1 1 1 1 1 1 1 1 1 1 1 1 1 1 1 1 1 1 1 1 1 1 1 1 1 0 1 0 1 0 1 0 1 0 1 0 1 0 1 0 1zm-50 750l0 -750 50 0 0 750 -50 0zm25 110l-75 -150 150 0 -75 150zm-25 -110l50 0 0 1 0 1 0 1 0 1 0 1 0 1 0 1 0 1 -1 1 -1 1 -1 1 -1 1 -1 1 -1 1 -1 1 -1 1 -1 1 -1 1 -1 1 -1 1 -1 1 -1 1 -1 1 -1 1 -1 0 -1 0 -1 0 -1 0 -1 0 -1 0 -1 0 -1 0 -1 0 -1 0 -1 0 -1 0 -1 0 -1 0 -1 0 -1 0 -1 -1 -1 -1 -1 -1 -1 -1 -1 -1 -1 -1 -1 -1 -1 -1 -1 -1 -1 -1 -1 -1 -1 -1 -1 -1 -1 -1 -1 -1 -1 -1 0 -1 0 -1 0 -1 0 -1 0 -1 0 -1 0 -1 0 -1z"/>
			</g>
			<line class="fil0 str4" x1="2118" y1="4980" x2="2118" y2= "5359" />
			<path class="fil0 str5" d="M2699 4684c0,-290 -405,-243 -405,-455"/>
			<g>
				<path class="fil4" d="M2143 4604l-50 0 0 -1 0 -1 0 -1 0 -1 0 -1 0 -1 0 -1 0 -1 1 -1 1 -1 1 -1 1 -1 1 -1 1 -1 1 -1 1 -1 1 -1 1 -1 1 -1 1 -1 1 -1 1 -1 1 -1 1 -1 1 0 1 0 1 0 1 0 1 0 1 0 1 0 1 0 1 0 1 0 1 0 1 0 1 0 1 0 1 0 1 0 1 1 1 1 1 1 1 1 1 1 1 1 1 1 1 1 1 1 1 1 1 1 1 1 1 1 1 1 1 1 1 1 0 1 0 1 0 1 0 1 0 1 0 1 0 1 0 1zm531 79l50 0 -2 30 -6 28 -9 26 -12 24 -15 22 -17 20 -20 18 -22 16 -23 14 -25 12 -26 9 -27 7 -28 5 -28 3 -29 1 -29 -1 -29 -3 -29 -5 -28 -7 -28 -9 -27 -11 -26 -14 -25 -16 -23 -18 -21 -21 -19 -23 -17 -25 -14 -28 -12 -30 -9 -32 -5 -34 -2 -37 50 0 2 32 4 29 7 27 10 25 12 23 14 21 16 19 18 17 19 15 21 14 22 12 23 10 24 8 25 6 25 4 25 3 25 1 25 -1 25 -3 24 -5 23 -6 22 -8 21 -10 19 -11 17 -13 16 -14 14 -15 11 -17 9 -18 7 -20 4 -21 1 -23zm25 -110l75 150 -150 0 75 -150zm25 110l-50 0 0 -1 0 -1 0 -1 0 -1 0 -1 0 -1 0 -1 0 -1 1 -1 1 -1 1 -1 1 -1 1 -1 1 -1 1 -1 1 -1 1 -1 1 -1 1 -1 1 -1 1 -1 1 -1 1 -1 1 -1 1 0 1 0 1 0 1 0 1 0 1 0 1 0 1 0 1 0 1 0 1 0 1 0 1 0 1 0 1 0 1 0 1 1 1 1 1 1 1 1 1 1 1 1 1 1 1 1 1 1 1 1 1 1 1 1 1 1 1 1 1 1 1 1 0 1 0 1 0 1 0 1 0 1 0 1 0 1 0 1z"/>
			</g>
			<g>
				<rect class="fil5" x="2032" y="4108" width="351" height="121"/>
				<polygon class="fil2" points="2060,4122 2176,4122 2176,4215 2060,4215 "/>
				<polygon class="fil3" points="2235,4122 2352,4122 2352,4215 2235,4215 "/>
			</g>
			<path class="fil4" d="M2003 7212c7,0 14,-1 19,-3 6,-2 10,-5 14,-8 4,-3 6,-8 8,-12 2,-5 3,-10 3,-16 0,-6 -1,-11 -3,-16 -2,-5 -5,-9 -8,-12 -4,-3 -8,-6 -14,-8 -6,-2 -12,-3 -20,-3l-30 0 0 78 30 0zm0 -104c13,0 25,2 35,5 10,3 18,7 24,13 6,6 11,12 14,20 3,8 5,17 5,26 0,10 -2,19 -5,27 -3,8 -8,15 -15,21 -6,6 -15,10 -24,14 -10,3 -21,5 -34,5l-30 0 0 74 -33 0 0 -203 63 0z"/>
			<path class="fil4" d="M2201 7223c0,-5 -1,-10 -2,-14 -1,-4 -4,-8 -6,-11 -3,-3 -6,-6 -10,-8 -4,-2 -9,-3 -14,-3 -11,0 -20,3 -26,9 -6,6 -10,15 -12,27l72 0zm-72 19c0,8 2,15 4,21 2,6 5,11 9,15 4,4 8,7 13,9 5,2 11,3 17,3 6,0 11,-1 15,-2 4,-1 8,-3 11,-5 3,-2 6,-3 8,-5 2,-1 4,-2 6,-2 2,0 4,1 6,3l9 11c-4,4 -8,8 -12,11 -5,3 -9,5 -14,7 -5,2 -10,3 -16,4 -5,1 -11,1 -16,1 -10,0 -19,-2 -28,-5 -9,-3 -16,-8 -22,-15 -6,-6 -11,-15 -15,-24 -4,-10 -5,-21 -5,-33 0,-10 2,-19 5,-28 3,-9 8,-16 14,-23 6,-6 13,-11 21,-15 8,-4 18,-6 29,-6 9,0 17,1 25,4 8,3 14,7 19,13 5,6 10,12 13,20 3,8 5,17 5,27 0,5 -1,8 -2,9 -1,2 -3,2 -6,2l-92 0z"/>
			<path class="fil4" d="M2351 7223c0,-5 -1,-10 -2,-14 -1,-4 -4,-8 -6,-11 -3,-3 -6,-6 -10,-8 -4,-2 -9,-3 -14,-3 -11,0 -20,3 -26,9 -6,6 -10,15 -12,27l72 0zm-72 19c0,8 2,15 4,21 2,6 5,11 9,15 4,4 8,7 13,9 5,2 11,3 17,3 6,0 11,-1 15,-2 4,-1 8,-3 11,-5 3,-2 6,-3 8,-5 2,-1 4,-2 6,-2 2,0 4,1 6,3l9 11c-4,4 -8,8 -12,11 -5,3 -9,5 -14,7 -5,2 -10,3 -16,4 -5,1 -11,1 -16,1 -10,0 -19,-2 -28,-5 -9,-3 -16,-8 -22,-15 -6,-6 -11,-15 -15,-24 -4,-10 -5,-21 -5,-33 0,-10 2,-19 5,-28 3,-9 8,-16 14,-23 6,-6 13,-11 21,-15 8,-4 18,-6 29,-6 9,0 17,1 25,4 8,3 14,7 19,13 5,6 10,12 13,20 3,8 5,17 5,27 0,5 -1,8 -2,9 -1,2 -3,2 -6,2l-92 0z"/>
			<path class="fil4" d="M2435 7194c5,-9 10,-16 16,-22 6,-5 14,-8 23,-8 3,0 6,0 9,1 3,1 5,2 7,3l-2 23c0,2 -1,3 -2,3 -1,1 -2,1 -3,1 -1,0 -3,0 -6,-1 -3,-1 -5,-1 -8,-1 -4,0 -8,1 -11,2 -3,1 -6,3 -9,5 -3,2 -5,5 -7,9 -2,3 -4,7 -6,12l0 89 -30 0 0 -144 18 0c3,0 5,1 7,2 1,1 2,3 3,6l2 19z"/>
		</g>
		<g>
			<polygon class="fil1 str3" points="5859,4169 5859,7432 3524,7432 3524,4169 4516,4169 4516,4108 4867,4108 4867,4169 "/>
			<path id="HDD_0" class="fil5" d="M5238 5359l-1082 0c-28,0 -50,22 -50,50l0 1525c0,28 22,50 50,50l1082 0c28,0 50,-22 50,-50l0 -1525c0,-28 -22,-50 -50,-50zm-485 677c0,-32 -26,-58 -58,-58 -32,0 -58,26 -58,58 0,32 26,58 58,58 32,0 58,-26 58,-58zm-61 -236c-130,0 -236,106 -236,236 0,130 106,236 236,236 130,0 236,-106 236,-236 0,-130 -106,-236 -236,-236zm3 408c-95,0 -172,-77 -172,-172 0,-95 77,-172 172,-172 95,0 172,77 172,172 0,95 -77,172 -172,172zm-110 271c0,0 -44,26 -49,29l-15 9c-54,33 -78,50 -78,98 0,63 51,114 114,114 50,0 64,-22 100,-74 4,-6 9,-13 13,-20 4,-5 29,-43 29,-43l178 -284 -291 171zm-385 -1053c27,0 48,22 48,48 0,27 -22,48 -48,48 -27,0 -48,-22 -48,-48 0,-27 22,-48 48,-48zm-2 1505c-27,0 -48,-22 -48,-48 0,-27 22,-48 48,-48 27,0 48,22 48,48 0,27 -22,48 -48,48zm546 -310c0,1 -26,40 -30,45 -5,7 -9,13 -13,19 -37,55 -66,99 -146,99 -93,0 -169,-76 -169,-169 0,-62 30,-95 67,-121 -166,-86 -280,-259 -280,-459 0,-285 231,-517 517,-517 285,0 517,231 517,517 0,250 -177,458 -413,506l-51 81zm444 310c-27,0 -48,-22 -48,-48 0,-27 22,-48 48,-48 27,0 48,22 48,48 0,27 -22,48 -48,48zm0 -1409c-27,0 -48,-22 -48,-48 0,-27 22,-48 48,-48 27,0 48,22 48,48 0,27 -22,48 -48,48z"/>
			<rect class="fil0 str2" x="3524" y="4169" width="2335" height="3263"/>
			<g>
				<path class="fil4" d="M4628 4229l-50 0 0 -1 0 -1 0 -1 0 -1 0 -1 0 -1 0 -1 0 -1 1 -1 1 -1 1 -1 1 -1 1 -1 1 -1 1 -1 1 -1 1 -1 1 -1 1 -1 1 -1 1 -1 1 -1 1 -1 1 -1 1 0 1 0 1 0 1 0 1 0 1 0 1 0 1 0 1 0 1 0 1 0 1 0 1 0 1 0 1 0 1 0 1 1 1 1 1 1 1 1 1 1 1 1 1 1 1 1 1 1 1 1 1 1 1 1 1 1 1 1 1 1 1 1 0 1 0 1 0 1 0 1 0 1 0 1 0 1 0 1zm-50 750l0 -750 50 0 0 750 -50 0zm25 110l-75 -150 150 0 -75 150zm-25 -110l50 0 0 1 0 1 0 1 0 1 0 1 0 1 0 1 0 1 -1 1 -1 1 -1 1 -1 1 -1 1 -1 1 -1 1 -1 1 -1 1 -1 1 -1 1 -1 1 -1 1 -1 1 -1 1 -1 1 -1 0 -1 0 -1 0 -1 0 -1 0 -1 0 -1 0 -1 0 -1 0 -1 0 -1 0 -1 0 -1 0 -1 0 -1 0 -1 0 -1 -1 -1 -1 -1 -1 -1 -1 -1 -1 -1 -1 -1 -1 -1 -1 -1 -1 -1 -1 -1 -1 -1 -1 -1 -1 -1 -1 -1 -1 -1 -1 0 -1 0 -1 0 -1 0 -1 0 -1 0 -1 0 -1 0 -1z"/>
			</g>
			<line class="fil0 str4" x1="4603" y1="4980" x2="4603" y2= "5359" />
			<path class="fil0 str5" d="M5184 4684c0,-290 -405,-243 -405,-455"/>
			<g>
				<path class="fil4" d="M4628 4604l-50 0 0 -1 0 -1 0 -1 0 -1 0 -1 0 -1 0 -1 0 -1 1 -1 1 -1 1 -1 1 -1 1 -1 1 -1 1 -1 1 -1 1 -1 1 -1 1 -1 1 -1 1 -1 1 -1 1 -1 1 -1 1 0 1 0 1 0 1 0 1 0 1 0 1 0 1 0 1 0 1 0 1 0 1 0 1 0 1 0 1 0 1 0 1 1 1 1 1 1 1 1 1 1 1 1 1 1 1 1 1 1 1 1 1 1 1 1 1 1 1 1 1 1 1 1 0 1 0 1 0 1 0 1 0 1 0 1 0 1 0 1zm531 79l50 0 -2 30 -6 28 -9 26 -12 24 -15 22 -17 20 -20 18 -22 16 -23 14 -25 12 -26 9 -27 7 -28 5 -28 3 -29 1 -29 -1 -29 -3 -29 -5 -28 -7 -28 -9 -27 -11 -26 -14 -25 -16 -23 -18 -21 -21 -19 -23 -17 -25 -14 -28 -12 -30 -9 -32 -5 -34 -2 -37 50 0 2 32 4 29 7 27 10 25 12 23 14 21 16 19 18 17 19 15 21 14 22 12 23 10 24 8 25 6 25 4 25 3 25 1 25 -1 25 -3 24 -5 23 -6 22 -8 21 -10 19 -11 17 -13 16 -14 14 -15 11 -17 9 -18 7 -20 4 -21 1 -23zm25 -110l75 150 -150 0 75 -150zm25 110l-50 0 0 -1 0 -1 0 -1 0 -1 0 -1 0 -1 0 -1 0 -1 1 -1 1 -1 1 -1 1 -1 1 -1 1 -1 1 -1 1 -1 1 -1 1 -1 1 -1 1 -1 1 -1 1 -1 1 -1 1 -1 1 0 1 0 1 0 1 0 1 0 1 0 1 0 1 0 1 0 1 0 1 0 1 0 1 0 1 0 1 0 1 0 1 1 1 1 1 1 1 1 1 1 1 1 1 1 1 1 1 1 1 1 1 1 1 1 1 1 1 1 1 1 1 1 0 1 0 1 0 1 0 1 0 1 0 1 0 1 0 1z"/>
			</g>
			<g>
				<rect class="fil5" x="4516" y="4108" width="351" height="121"/>
				<polygon class="fil2" points="4545,4122 4661,4122 4661,4215 4545,4215 "/>
				<polygon class="fil3" points="4720,4122 4837,4122 4837,4215 4720,4215 "/>
			</g>
			<path class="fil4" d="M4492 7212c7,0 14,-1 19,-3 6,-2 10,-5 14,-8 4,-3 6,-8 8,-12 2,-5 3,-10 3,-16 0,-6 -1,-11 -3,-16 -2,-5 -5,-9 -8,-12 -4,-3 -8,-6 -14,-8 -6,-2 -12,-3 -20,-3l-30 0 0 78 30 0zm0 -104c13,0 25,2 35,5 10,3 18,7 24,13 6,6 11,12 14,20 3,8 5,17 5,26 0,10 -2,19 -5,27 -3,8 -8,15 -15,21 -6,6 -15,10 -24,14 -10,3 -21,5 -34,5l-30 0 0 74 -33 0 0 -203 63 0z"/>
			<path class="fil4" d="M4682 7223c0,-5 -1,-10 -2,-14 -1,-4 -4,-8 -6,-11 -3,-3 -6,-6 -10,-8 -4,-2 -9,-3 -14,-3 -11,0 -20,3 -26,9 -6,6 -10,15 -12,27l72 0zm-72 19c0,8 2,15 4,21 2,6 5,11 9,15 4,4 8,7 13,9 5,2 11,3 17,3 6,0 11,-1 15,-2 4,-1 8,-3 11,-5 3,-2 6,-3 8,-5 2,-1 4,-2 6,-2 2,0 4,1 6,3l9 11c-4,4 -8,8 -12,11 -5,3 -9,5 -14,7 -5,2 -10,3 -16,4 -5,1 -11,1 -16,1 -10,0 -19,-2 -28,-5 -9,-3 -16,-8 -22,-15 -6,-6 -11,-15 -15,-24 -4,-10 -5,-21 -5,-33 0,-10 2,-19 5,-28 3,-9 8,-16 14,-23 6,-6 13,-11 21,-15 8,-4 18,-6 29,-6 9,0 17,1 25,4 8,3 14,7 19,13 5,6 10,12 13,20 3,8 5,17 5,27 0,5 -1,8 -2,9 -1,2 -3,2 -6,2l-92 0z"/>
			<path class="fil4" d="M4832 7223c0,-5 -1,-10 -2,-14 -1,-4 -4,-8 -6,-11 -3,-3 -6,-6 -10,-8 -4,-2 -9,-3 -14,-3 -11,0 -20,3 -26,9 -6,6 -10,15 -12,27l72 0zm-72 19c0,8 2,15 4,21 2,6 5,11 9,15 4,4 8,7 13,9 5,2 11,3 17,3 6,0 11,-1 15,-2 4,-1 8,-3 11,-5 3,-2 6,-3 8,-5 2,-1 4,-2 6,-2 2,0 4,1 6,3l9 11c-4,4 -8,8 -12,11 -5,3 -9,5 -14,7 -5,2 -10,3 -16,4 -5,1 -11,1 -16,1 -10,0 -19,-2 -28,-5 -9,-3 -16,-8 -22,-15 -6,-6 -11,-15 -15,-24 -4,-10 -5,-21 -5,-33 0,-10 2,-19 5,-28 3,-9 8,-16 14,-23 6,-6 13,-11 21,-15 8,-4 18,-6 29,-6 9,0 17,1 25,4 8,3 14,7 19,13 5,6 10,12 13,20 3,8 5,17 5,27 0,5 -1,8 -2,9 -1,2 -3,2 -6,2l-92 0z"/>
			<path class="fil4" d="M4916 7194c5,-9 10,-16 16,-22 6,-5 14,-8 23,-8 3,0 6,0 9,1 3,1 5,2 7,3l-2 23c0,2 -1,3 -2,3 -1,1 -2,1 -3,1 -1,0 -3,0 -6,-1 -3,-1 -5,-1 -8,-1 -4,0 -8,1 -11,2 -3,1 -6,3 -9,5 -3,2 -5,5 -7,9 -2,3 -4,7 -6,12l0 89 -30 0 0 -144 18 0c3,0 5,1 7,2 1,1 2,3 3,6l2 19z"/>
		</g>
		<g>
			<polygon class="fil1 str3" points="8344,4169 8344,7432 6009,7432 6009,4169 7001,4169 7001,4108 7352,4108 7352,4169 "/>
			<path id="HDD_1" class="fil5" d="M7722 5359l-1082 0c-28,0 -50,22 -50,50l0 1525c0,28 22,50 50,50l1082 0c28,0 50,-22 50,-50l0 -1525c0,-28 -22,-50 -50,-50zm-485 677c0,-32 -26,-58 -58,-58 -32,0 -58,26 -58,58 0,32 26,58 58,58 32,0 58,-26 58,-58zm-61 -236c-130,0 -236,106 -236,236 0,130 106,236 236,236 130,0 236,-106 236,-236 0,-130 -106,-236 -236,-236zm3 408c-95,0 -172,-77 -172,-172 0,-95 77,-172 172,-172 95,0 172,77 172,172 0,95 -77,172 -172,172zm-110 271c0,0 -44,26 -49,29l-15 9c-54,33 -78,50 -78,98 0,63 51,114 114,114 50,0 64,-22 100,-74 4,-6 9,-13 13,-20 4,-5 29,-43 29,-43l178 -284 -291 171zm-385 -1053c27,0 48,22 48,48 0,27 -22,48 -48,48 -27,0 -48,-22 -48,-48 0,-27 22,-48 48,-48zm-2 1505c-27,0 -48,-22 -48,-48 0,-27 22,-48 48,-48 27,0 48,22 48,48 0,27 -22,48 -48,48zm546 -310c0,1 -26,40 -30,45 -5,7 -9,13 -13,19 -37,55 -66,99 -146,99 -93,0 -169,-76 -169,-169 0,-62 30,-95 67,-121 -166,-86 -280,-259 -280,-459 0,-285 231,-517 517,-517 285,0 517,231 517,517 0,250 -177,458 -413,506l-51 81zm444 310c-27,0 -48,-22 -48,-48 0,-27 22,-48 48,-48 27,0 48,22 48,48 0,27 -22,48 -48,48zm0 -1409c-27,0 -48,-22 -48,-48 0,-27 22,-48 48,-48 27,0 48,22 48,48 0,27 -22,48 -48,48z"/>
			<rect class="fil0 str2" x="6009" y="4169" width="2335" height="3263"/>
			<g>
				<path class="fil4" d="M7113 4229l-50 0 0 -1 0 -1 0 -1 0 -1 0 -1 0 -1 0 -1 0 -1 1 -1 1 -1 1 -1 1 -1 1 -1 1 -1 1 -1 1 -1 1 -1 1 -1 1 -1 1 -1 1 -1 1 -1 1 -1 1 -1 1 0 1 0 1 0 1 0 1 0 1 0 1 0 1 0 1 0 1 0 1 0 1 0 1 0 1 0 1 0 1 0 1 1 1 1 1 1 1 1 1 1 1 1 1 1 1 1 1 1 1 1 1 1 1 1 1 1 1 1 1 1 1 1 0 1 0 1 0 1 0 1 0 1 0 1 0 1 0 1zm-50 750l0 -750 50 0 0 750 -50 0zm25 110l-75 -150 150 0 -75 150zm-25 -110l50 0 0 1 0 1 0 1 0 1 0 1 0 1 0 1 0 1 -1 1 -1 1 -1 1 -1 1 -1 1 -1 1 -1 1 -1 1 -1 1 -1 1 -1 1 -1 1 -1 1 -1 1 -1 1 -1 1 -1 0 -1 0 -1 0 -1 0 -1 0 -1 0 -1 0 -1 0 -1 0 -1 0 -1 0 -1 0 -1 0 -1 0 -1 0 -1 0 -1 -1 -1 -1 -1 -1 -1 -1 -1 -1 -1 -1 -1 -1 -1 -1 -1 -1 -1 -1 -1 -1 -1 -1 -1 -1 -1 -1 -1 -1 -1 -1 0 -1 0 -1 0 -1 0 -1 0 -1 0 -1 0 -1 0 -1z"/>
			</g>
			<line class="fil0 str4" x1="7088" y1="4980" x2="7088" y2= "5359" />
			<path class="fil0 str5" d="M7669 4684c0,-290 -405,-243 -405,-455"/>
			<g>
				<path class="fil4" d="M7113 4604l-50 0 0 -1 0 -1 0 -1 0 -1 0 -1 0 -1 0 -1 0 -1 1 -1 1 -1 1 -1 1 -1 1 -1 1 -1 1 -1 1 -1 1 -1 1 -1 1 -1 1 -1 1 -1 1 -1 1 -1 1 -1 1 0 1 0 1 0 1 0 1 0 1 0 1 0 1 0 1 0 1 0 1 0 1 0 1 0 1 0 1 0 1 0 1 1 1 1 1 1 1 1 1 1 1 1 1 1 1 1 1 1 1 1 1 1 1 1 1 1 1 1 1 1 1 1 0 1 0 1 0 1 0 1 0 1 0 1 0 1 0 1zm531 79l50 0 -2 30 -6 28 -9 26 -12 24 -15 22 -17 20 -20 18 -22 16 -23 14 -25 12 -26 9 -27 7 -28 5 -28 3 -29 1 -29 -1 -29 -3 -29 -5 -28 -7 -28 -9 -27 -11 -26 -14 -25 -16 -23 -18 -21 -21 -19 -23 -17 -25 -14 -28 -12 -30 -9 -32 -5 -34 -2 -37 50 0 2 32 4 29 7 27 10 25 12 23 14 21 16 19 18 17 19 15 21 14 22 12 23 10 24 8 25 6 25 4 25 3 25 1 25 -1 25 -3 24 -5 23 -6 22 -8 21 -10 19 -11 17 -13 16 -14 14 -15 11 -17 9 -18 7 -20 4 -21 1 -23zm25 -110l75 150 -150 0 75 -150zm25 110l-50 0 0 -1 0 -1 0 -1 0 -1 0 -1 0 -1 0 -1 0 -1 1 -1 1 -1 1 -1 1 -1 1 -1 1 -1 1 -1 1 -1 1 -1 1 -1 1 -1 1 -1 1 -1 1 -1 1 -1 1 -1 1 0 1 0 1 0 1 0 1 0 1 0 1 0 1 0 1 0 1 0 1 0 1 0 1 0 1 0 1 0 1 0 1 1 1 1 1 1 1 1 1 1 1 1 1 1 1 1 1 1 1 1 1 1 1 1 1 1 1 1 1 1 1 1 0 1 0 1 0 1 0 1 0 1 0 1 0 1 0 1z"/>
			</g>
			<g>
				<rect class="fil5" x="7001" y="4108" width="351" height="121"/>
				<polygon class="fil2" points="7029,4122 7146,4122 7146,4215 7029,4215 "/>
				<polygon class="fil3" points="7205,4122 7321,4122 7321,4215 7205,4215 "/>
			</g>
			<path class="fil4" d="M6976 7212c7,0 14,-1 19,-3 6,-2 10,-5 14,-8 4,-3 6,-8 8,-12 2,-5 3,-10 3,-16 0,-6 -1,-11 -3,-16 -2,-5 -5,-9 -8,-12 -4,-3 -8,-6 -14,-8 -6,-2 -12,-3 -20,-3l-30 0 0 78 30 0zm0 -104c13,0 25,2 35,5 10,3 18,7 24,13 6,6 11,12 14,20 3,8 5,17 5,26 0,10 -2,19 -5,27 -3,8 -8,15 -15,21 -6,6 -15,10 -24,14 -10,3 -21,5 -34,5l-30 0 0 74 -33 0 0 -203 63 0z"/>
			<path class="fil4" d="M7167 7223c0,-5 -1,-10 -2,-14 -1,-4 -4,-8 -6,-11 -3,-3 -6,-6 -10,-8 -4,-2 -9,-3 -14,-3 -11,0 -20,3 -26,9 -6,6 -10,15 -12,27l72 0zm-72 19c0,8 2,15 4,21 2,6 5,11 9,15 4,4 8,7 13,9 5,2 11,3 17,3 6,0 11,-1 15,-2 4,-1 8,-3 11,-5 3,-2 6,-3 8,-5 2,-1 4,-2 6,-2 2,0 4,1 6,3l9 11c-4,4 -8,8 -12,11 -5,3 -9,5 -14,7 -5,2 -10,3 -16,4 -5,1 -11,1 -16,1 -10,0 -19,-2 -28,-5 -9,-3 -16,-8 -22,-15 -6,-6 -11,-15 -15,-24 -4,-10 -5,-21 -5,-33 0,-10 2,-19 5,-28 3,-9 8,-16 14,-23 6,-6 13,-11 21,-15 8,-4 18,-6 29,-6 9,0 17,1 25,4 8,3 14,7 19,13 5,6 10,12 13,20 3,8 5,17 5,27 0,5 -1,8 -2,9 -1,2 -3,2 -6,2l-92 0z"/>
			<path class="fil4" d="M7317 7223c0,-5 -1,-10 -2,-14 -1,-4 -4,-8 -6,-11 -3,-3 -6,-6 -10,-8 -4,-2 -9,-3 -14,-3 -11,0 -20,3 -26,9 -6,6 -10,15 -12,27l72 0zm-72 19c0,8 2,15 4,21 2,6 5,11 9,15 4,4 8,7 13,9 5,2 11,3 17,3 6,0 11,-1 15,-2 4,-1 8,-3 11,-5 3,-2 6,-3 8,-5 2,-1 4,-2 6,-2 2,0 4,1 6,3l9 11c-4,4 -8,8 -12,11 -5,3 -9,5 -14,7 -5,2 -10,3 -16,4 -5,1 -11,1 -16,1 -10,0 -19,-2 -28,-5 -9,-3 -16,-8 -22,-15 -6,-6 -11,-15 -15,-24 -4,-10 -5,-21 -5,-33 0,-10 2,-19 5,-28 3,-9 8,-16 14,-23 6,-6 13,-11 21,-15 8,-4 18,-6 29,-6 9,0 17,1 25,4 8,3 14,7 19,13 5,6 10,12 13,20 3,8 5,17 5,27 0,5 -1,8 -2,9 -1,2 -3,2 -6,2l-92 0z"/>
			<path class="fil4" d="M7401 7194c5,-9 10,-16 16,-22 6,-5 14,-8 23,-8 3,0 6,0 9,1 3,1 5,2 7,3l-2 23c0,2 -1,3 -2,3 -1,1 -2,1 -3,1 -1,0 -3,0 -6,-1 -3,-1 -5,-1 -8,-1 -4,0 -8,1 -11,2 -3,1 -6,3 -9,5 -3,2 -5,5 -7,9 -2,3 -4,7 -6,12l0 89 -30 0 0 -144 18 0c3,0 5,1 7,2 1,1 2,3 3,6l2 19z"/>
		</g>
		<g>
			<polygon class="fil1 str3" points="2385,3313 2385,50 50,50 50,3313 1042,3313 1042,3374 1393,3374 1393,3313 "/>
			<rect class="fil0 str2" x="50" y="50" width="2335" height="3263"/>
			<g>
				<path class="fil4" d="M1329 2122l-50 0 0 -1 0 -1 0 -1 0 -1 0 -1 0 -1 0 -1 0 -1 1 -1 1 -1 1 -1 1 -1 1 -1 1 -1 1 -1 1 -1 1 -1 1 -1 1 -1 1 -1 1 -1 1 -1 1 -1 1 -1 1 0 1 0 1 0 1 0 1 0 1 0 1 0 1 0 1 0 1 0 1 0 1 0 1 0 1 0 1 0 1 0 1 1 1 1 1 1 1 1 1 1 1 1 1 1 1 1 1 1 1 1 1 1 1 1 1 1 1 1 1 1 1 1 0 1 0 1 0 1 0 1 0 1 0 1 0 1 0 1zm-50 572l0 -572 50 0 0 572 -50 0zm25 110l-100 -200 200 0 -100 200zm-25 -110l50 0 0 1 0 1 0 1 0 1 0 1 0 1 0 1 0 1 -1 1 -1 1 -1 1 -1 1 -1 1 -1 1 -1 1 -1 1 -1 1 -1 1 -1 1 -1 1 -1 1 -1 1 -1 1 -1 1 -1 0 -1 0 -1 0 -1 0 -1 0 -1 0 -1 0 -1 0 -1 0 -1 0 -1 0 -1 0 -1 0 -1 0 -1 0 -1 0 -1 -1 -1 -1 -1 -1 -1 -1 -1 -1 -1 -1 -1 -1 -1 -1 -1 -1 -1 -1 -1 -1 -1 -1 -1 -1 -1 -1 -1 -1 -1 -1 0 -1 0 -1 0 -1 0 -1 0 -1 0 -1 0 -1 0 -1z"/>
			</g>
			<line class="fil0 str4" x1="1304" y1="2695" x2="1304" y2= "3253" />
			<g>
				<rect class="fil5" x="1042" y="3253" width="351" height="121"/>
				<polygon class="fil2" points="1070,3360 1187,3360 1187,3267 1070,3267 "/>
				<polygon class="fil3" points="1246,3360 1362,3360 1362,3267 1246,3267 "/>
			</g>
			<path class="fil7" d="M1217 657c-285,0 -517,231 -517,517 0,285 231,517 517,517 285,0 517,-231 517,-517 0,-285 -231,-517 -517,-517zm1 282c-130,0 -236,106 -236,236 0,130 106,236 236,236 130,0 236,-106 236,-236 0,-130 -106,-236 -236,-236z"/>
			<path id="HDD_2" class="fil5" d="M1763 498l-1082 0c-28,0 -50,22 -50,50l0 1525c0,28 22,50 50,50l1082 0c28,0 50,-22 50,-50l0 -1525c0,-28 -22,-50 -50,-50zm-485 677c0,-32 -26,-58 -58,-58 -32,0 -58,26 -58,58 0,32 26,58 58,58 32,0 58,-26 58,-58zm-61 -236c-130,0 -236,106 -236,236 0,130 106,236 236,236 130,0 236,-106 236,-236 0,-130 -106,-236 -236,-236zm3 408c-95,0 -172,-77 -172,-172 0,-95 77,-172 172,-172 95,0 172,77 172,172 0,95 -77,172 -172,172zm-110 271c0,0 -44,26 -49,29l-15 9c-54,33 -78,50 -78,98 0,63 51,114 114,114 50,0 64,-22 100,-74 4,-6 9,-13 13,-20 4,-5 29,-43 29,-43l178 -284 -291 171zm-385 -1053c27,0 48,22 48,48 0,27 -22,48 -48,48 -27,0 -48,-22 -48,-48 0,-27 22,-48 48,-48zm-2 1505c-27,0 -48,-22 -48,-48 0,-27 22,-48 48,-48 27,0 48,22 48,48 0,27 -22,48 -48,48zm546 -310c0,1 -26,40 -30,45 -5,7 -9,13 -13,19 -37,55 -66,99 -146,99 -93,0 -169,-76 -169,-169 0,-62 30,-95 67,-121 -166,-86 -280,-259 -280,-459 0,-285 231,-517 517,-517 285,0 517,231 517,517 0,250 -177,458 -413,506l-51 81zm444 310c-27,0 -48,-22 -48,-48 0,-27 22,-48 48,-48 27,0 48,22 48,48 0,27 -22,48 -48,48zm0 -1409c-27,0 -48,-22 -48,-48 0,-27 22,-48 48,-48 27,0 48,22 48,48 0,27 -22,48 -48,48z"/>
			<path class="fil4" d="M1038 210c-1,2 -2,3 -3,4 -1,1 -3,1 -4,1 -2,0 -4,-1 -6,-2 -2,-2 -5,-3 -8,-5 -3,-2 -7,-4 -12,-5 -4,-2 -10,-2 -16,-2 -6,0 -11,1 -15,2 -4,1 -8,3 -11,6 -3,3 -5,6 -7,9 -1,3 -2,7 -2,11 0,5 1,9 4,13 3,3 6,6 11,9 4,2 10,5 15,6 6,2 12,4 18,6 6,2 12,4 18,7 6,3 11,6 15,10 4,4 8,9 11,15 3,6 4,13 4,21 0,9 -2,17 -5,25 -3,8 -8,15 -13,21 -6,6 -13,11 -22,14 -9,3 -18,5 -29,5 -6,0 -13,-1 -19,-2 -6,-1 -12,-3 -18,-5 -6,-2 -11,-5 -16,-8 -5,-3 -9,-7 -13,-11l10 -16c1,-1 2,-2 3,-3 1,-1 3,-1 4,-1 2,0 5,1 7,3 3,2 6,4 10,7 4,2 8,5 13,7 5,2 12,3 19,3 12,0 21,-3 28,-9 7,-6 10,-14 10,-24 0,-6 -1,-10 -4,-14 -3,-4 -6,-7 -11,-9 -4,-2 -10,-5 -15,-6 -6,-2 -12,-4 -18,-5 -6,-2 -12,-4 -17,-7 -6,-3 -11,-6 -15,-10 -4,-4 -8,-9 -11,-16 -3,-6 -4,-14 -4,-23 0,-7 1,-14 4,-21 3,-7 7,-13 13,-18 6,-5 12,-10 20,-13 8,-3 17,-5 28,-5 12,0 22,2 32,6 10,4 18,9 25,16l-8 16z"/>
			<path class="fil4" d="M1174 291c0,-5 -1,-10 -2,-14 -1,-4 -4,-8 -6,-11 -3,-3 -6,-6 -10,-8 -4,-2 -9,-3 -14,-3 -11,0 -20,3 -26,9 -6,6 -10,15 -12,27l72 0zm-72 19c0,8 2,15 4,21 2,6 5,11 9,15 4,4 8,7 13,9 5,2 11,3 17,3 6,0 11,-1 15,-2 4,-1 8,-3 11,-5 3,-2 6,-3 8,-5 2,-1 4,-2 6,-2 2,0 4,1 6,3l9 11c-4,4 -8,8 -12,11 -5,3 -9,5 -14,7 -5,2 -10,3 -16,4 -5,1 -11,1 -16,1 -10,0 -19,-2 -28,-5 -9,-3 -16,-8 -22,-15 -6,-6 -11,-15 -15,-24 -4,-10 -5,-21 -5,-33 0,-10 2,-19 5,-28 3,-9 8,-16 14,-23 6,-6 13,-11 21,-15 8,-4 18,-6 29,-6 9,0 17,1 25,4 8,3 14,7 19,13 5,6 10,12 13,20 3,8 5,17 5,27 0,5 -1,8 -2,9 -1,2 -3,2 -6,2l-92 0z"/>
			<path class="fil4" d="M1323 291c0,-5 -1,-10 -2,-14 -1,-4 -4,-8 -6,-11 -3,-3 -6,-6 -10,-8 -4,-2 -9,-3 -14,-3 -11,0 -20,3 -26,9 -6,6 -10,15 -12,27l72 0zm-72 19c0,8 2,15 4,21 2,6 5,11 9,15 4,4 8,7 13,9 5,2 11,3 17,3 6,0 11,-1 15,-2 4,-1 8,-3 11,-5 3,-2 6,-3 8,-5 2,-1 4,-2 6,-2 2,0 4,1 6,3l9 11c-4,4 -8,8 -12,11 -5,3 -9,5 -14,7 -5,2 -10,3 -16,4 -5,1 -11,1 -16,1 -10,0 -19,-2 -28,-5 -9,-3 -16,-8 -22,-15 -6,-6 -11,-15 -15,-24 -4,-10 -5,-21 -5,-33 0,-10 2,-19 5,-28 3,-9 8,-16 14,-23 6,-6 13,-11 21,-15 8,-4 18,-6 29,-6 9,0 17,1 25,4 8,3 14,7 19,13 5,6 10,12 13,20 3,8 5,17 5,27 0,5 -1,8 -2,9 -1,2 -3,2 -6,2l-92 0z"/>
			<path class="fil4" d="M1471 270c-4,-5 -9,-9 -14,-11 -5,-2 -11,-3 -17,-3 -12,0 -21,4 -28,13 -7,9 -10,22 -10,39 0,9 1,16 2,23 2,6 4,11 6,15 3,4 6,7 10,9 4,2 9,3 14,3 8,0 14,-2 20,-5 6,-3 11,-8 16,-14l0 -67zm30 -100l0 209 -18 0c-4,0 -7,-2 -8,-6l-3 -16c-6,7 -13,13 -21,17 -8,4 -17,6 -27,6 -8,0 -15,-2 -22,-5 -7,-3 -12,-8 -17,-14 -5,-6 -8,-14 -11,-23 -3,-9 -4,-20 -4,-32 0,-11 1,-21 4,-30 3,-9 7,-17 12,-24 5,-7 12,-12 20,-16 8,-4 16,-6 26,-6 8,0 16,1 22,4 6,3 11,6 16,11l0 -77 30 0z"/>
		</g>
		<g>
			<polygon class="fil1 str3" points="9334,3313 9334,50 6999,50 6999,3313 7991,3313 7991,3374 8342,3374 8342,3313 "/>
			<rect class="fil0 str2" x="6999" y="50" width="2335" height="3263"/>
			<g>
				<path class="fil4" d="M8052 3253l50 0 0 1 0 1 0 1 0 1 0 1 0 1 0 1 0 1 -1 1 -1 1 -1 1 -1 1 -1 1 -1 1 -1 1 -1 1 -1 1 -1 1 -1 1 -1 1 -1 1 -1 1 -1 1 -1 1 -1 0 -1 0 -1 0 -1 0 -1 0 -1 0 -1 0 -1 0 -1 0 -1 0 -1 0 -1 0 -1 0 -1 0 -1 0 -1 0 -1 -1 -1 -1 -1 -1 -1 -1 -1 -1 -1 -1 -1 -1 -1 -1 -1 -1 -1 -1 -1 -1 -1 -1 -1 -1 -1 -1 -1 -1 -1 -1 0 -1 0 -1 0 -1 0 -1 0 -1 0 -1 0 -1 0 -1zm50 -572l0 572 -50 0 0 -572 50 0zm-25 -110l100 200 -200 0 100 -200zm25 110l-50 0 0 -1 0 -1 0 -1 0 -1 0 -1 0 -1 0 -1 0 -1 1 -1 1 -1 1 -1 1 -1 1 -1 1 -1 1 -1 1 -1 1 -1 1 -1 1 -1 1 -1 1 -1 1 -1 1 -1 1 -1 1 0 1 0 1 0 1 0 1 0 1 0 1 0 1 0 1 0 1 0 1 0 1 0 1 0 1 0 1 0 1 0 1 1 1 1 1 1 1 1 1 1 1 1 1 1 1 1 1 1 1 1 1 1 1 1 1 1 1 1 1 1 1 1 0 1 0 1 0 1 0 1 0 1 0 1 0 1 0 1z"/>
			</g>
			<line class="fil0 str4" x1="8077" y1="2680" x2="8077" y2= "2122" />
			<g>
				<rect class="fil5" x="7991" y="3253" width="351" height="121"/>
				<polygon class="fil2" points="8019,3360 8136,3360 8136,3267 8019,3267 "/>
				<polygon class="fil3" points="8195,3360 8311,3360 8311,3267 8195,3267 "/>
			</g>
			<path id="HDD_3" class="fil5" d="M8712 498l-1082 0c-28,0 -50,22 -50,50l0 1525c0,28 22,50 50,50l1082 0c28,0 50,-22 50,-50l0 -1525c0,-28 -22,-50 -50,-50zm-485 677c0,-32 -26,-58 -58,-58 -32,0 -58,26 -58,58 0,32 26,58 58,58 32,0 58,-26 58,-58zm-61 -236c-130,0 -236,106 -236,236 0,130 106,236 236,236 130,0 236,-106 236,-236 0,-130 -106,-236 -236,-236zm3 408c-95,0 -172,-77 -172,-172 0,-95 77,-172 172,-172 95,0 172,77 172,172 0,95 -77,172 -172,172zm-110 271c0,0 -44,26 -49,29l-15 9c-54,33 -78,50 -78,98 0,63 51,114 114,114 50,0 64,-22 100,-74 4,-6 9,-13 13,-20 4,-5 29,-43 29,-43l178 -284 -291 171zm-385 -1053c27,0 48,22 48,48 0,27 -22,48 -48,48 -27,0 -48,-22 -48,-48 0,-27 22,-48 48,-48zm-2 1505c-27,0 -48,-22 -48,-48 0,-27 22,-48 48,-48 27,0 48,22 48,48 0,27 -22,48 -48,48zm546 -310c0,1 -26,40 -30,45 -5,7 -9,13 -13,19 -37,55 -66,99 -146,99 -93,0 -169,-76 -169,-169 0,-62 30,-95 67,-121 -166,-86 -280,-259 -280,-459 0,-285 231,-517 517,-517 285,0 517,231 517,517 0,250 -177,458 -413,506l-51 81zm444 310c-27,0 -48,-22 -48,-48 0,-27 22,-48 48,-48 27,0 48,22 48,48 0,27 -22,48 -48,48zm0 -1409c-27,0 -48,-22 -48,-48 0,-27 22,-48 48,-48 27,0 48,22 48,48 0,27 -22,48 -48,48z"/>
			<polygon class="fil4" points="7934,351 7934,379 7817,379 7817,176 7850,176 7850,351 "/>
			<path class="fil4" d="M8051 291c0,-5 -1,-10 -2,-14 -1,-4 -4,-8 -6,-11 -3,-3 -6,-6 -10,-8 -4,-2 -9,-3 -14,-3 -11,0 -20,3 -26,9 -6,6 -10,15 -12,27l72 0zm-72 19c0,8 2,15 4,21 2,6 5,11 9,15 4,4 8,7 13,9 5,2 11,3 17,3 6,0 11,-1 15,-2 4,-1 8,-3 11,-5 3,-2 6,-3 8,-5 2,-1 4,-2 6,-2 2,0 4,1 6,3l9 11c-4,4 -8,8 -12,11 -5,3 -9,5 -14,7 -5,2 -10,3 -16,4 -5,1 -11,1 -16,1 -10,0 -19,-2 -28,-5 -9,-3 -16,-8 -22,-15 -6,-6 -11,-15 -15,-24 -4,-10 -5,-21 -5,-33 0,-10 2,-19 5,-28 3,-9 8,-16 14,-23 6,-6 13,-11 21,-15 8,-4 18,-6 29,-6 9,0 17,1 25,4 8,3 14,7 19,13 5,6 10,12 13,20 3,8 5,17 5,27 0,5 -1,8 -2,9 -1,2 -3,2 -6,2l-92 0z"/>
			<path class="fil4" d="M8201 291c0,-5 -1,-10 -2,-14 -1,-4 -4,-8 -6,-11 -3,-3 -6,-6 -10,-8 -4,-2 -9,-3 -14,-3 -11,0 -20,3 -26,9 -6,6 -10,15 -12,27l72 0zm-72 19c0,8 2,15 4,21 2,6 5,11 9,15 4,4 8,7 13,9 5,2 11,3 17,3 6,0 11,-1 15,-2 4,-1 8,-3 11,-5 3,-2 6,-3 8,-5 2,-1 4,-2 6,-2 2,0 4,1 6,3l9 11c-4,4 -8,8 -12,11 -5,3 -9,5 -14,7 -5,2 -10,3 -16,4 -5,1 -11,1 -16,1 -10,0 -19,-2 -28,-5 -9,-3 -16,-8 -22,-15 -6,-6 -11,-15 -15,-24 -4,-10 -5,-21 -5,-33 0,-10 2,-19 5,-28 3,-9 8,-16 14,-23 6,-6 13,-11 21,-15 8,-4 18,-6 29,-6 9,0 17,1 25,4 8,3 14,7 19,13 5,6 10,12 13,20 3,8 5,17 5,27 0,5 -1,8 -2,9 -1,2 -3,2 -6,2l-92 0z"/>
			<path class="fil4" d="M8358 263c-1,1 -2,2 -3,3 -1,1 -2,1 -4,1 -2,0 -3,-1 -5,-2 -2,-1 -4,-2 -6,-4 -2,-1 -5,-3 -9,-4 -3,-1 -8,-2 -13,-2 -7,0 -12,1 -17,4 -5,2 -9,6 -12,10 -3,4 -6,10 -7,16 -2,6 -2,13 -2,21 0,8 1,15 3,22 2,6 4,12 8,16 3,4 7,8 12,10 5,2 10,3 16,3 6,0 11,-1 14,-2 4,-1 7,-3 9,-5 2,-2 5,-3 6,-5 2,-1 4,-2 6,-2 2,0 4,1 6,3l9 11c-3,4 -7,8 -12,11 -4,3 -9,5 -13,7 -5,2 -10,3 -15,4 -5,1 -10,1 -15,1 -9,0 -17,-2 -25,-5 -8,-3 -15,-8 -20,-15 -6,-6 -10,-14 -14,-23 -3,-9 -5,-20 -5,-31 0,-11 2,-21 5,-30 3,-9 7,-17 13,-23 6,-7 13,-12 21,-15 9,-4 18,-6 30,-6 10,0 20,2 28,5 8,3 15,8 21,14l-8 11z"/>
			<path class="fil4" d="M8423 252c6,-6 12,-11 19,-14 7,-4 15,-5 25,-5 8,0 15,1 21,4 6,3 11,6 15,11 4,5 7,11 9,17 2,7 3,14 3,22l0 92 -30 0 0 -92c0,-10 -2,-17 -7,-23 -4,-5 -11,-8 -20,-8 -7,0 -13,2 -19,5 -6,3 -11,7 -16,13l0 105 -30 0 0 -209 30 0 0 82z"/>
		</g>
		<g>
			<polyline class="fil0 str6" points="4604,2171 4604,2252 4663,2347 4662,3954 4603,4034 4603,4122 "/>
			<polyline class="fil0 str6" points="4780,2171 4780,2252 4721,2347 4722,3954 4781,4034 4781,4122 "/>
			<polyline class="fil0 str2" points="4604,2171 4604,2252 4663,2347 4662,3954 4603,4034 4603,4122 "/>
			<polyline class="fil0 str2" points="4780,2171 4780,2252 4721,2347 4722,3954 4781,4034 4781,4122 "/>
		</g>
		<g>
			<path class="fil0 str6" d="M2237 3940c0,-199 1918,-134 1919,-1527"/>
			<path class="fil0 str6" d="M2176 3878c0,-199 1921,-137 1922,-1530"/>
			<polyline class="fil0 str6" points="4039,2172 4039,2253 4098,2348 "/>
			<polyline class="fil0 str6" points="4215,2172 4215,2253 4156,2348 4155,2414 "/>
			<polyline class="fil0 str6" points="2237,3940 2296,4019 2296,4108 "/>
			<polyline class="fil0 str6" points="2177,3867 2177,3940 2118,4019 2118,4108 "/>
			<polyline class="fil0 str2" points="4039,2172 4039,2253 4098,2348 "/>
			<polyline class="fil0 str2" points="4215,2172 4215,2253 4156,2348 4155,2414 "/>
			<polyline class="fil0 str2" points="2237,3940 2296,4019 2296,4108 "/>
			<polyline class="fil0 str2" points="2177,3870 2177,3940 2118,4019 2118,4108 "/>
			<path class="fil0 str7" d="M2176 3878c0,-199 1921,-137 1922,-1530"/>
			<path class="fil0 str7" d="M2237 3940c0,-199 1918,-134 1919,-1527"/>
		</g>
		<g>
			<path class="fil0 str6" d="M7144 3940c0,-199 -1918,-134 -1919,-1527"/>
			<path class="fil0 str6" d="M7205 3878c0,-199 -1921,-137 -1922,-1530"/>
			<polyline class="fil0 str6" points="5342,2172 5342,2253 5283,2348 "/>
			<polyline class="fil0 str6" points="5166,2172 5166,2253 5225,2348 5226,2414 "/>
			<polyline class="fil0 str6" points="7144,3940 7085,4019 7085,4108 "/>
			<polyline class="fil0 str6" points="7204,3867 7204,3940 7263,4019 7263,4108 "/>
			<polyline class="fil0 str2" points="5342,2172 5342,2253 5283,2348 "/>
			<polyline class="fil0 str2" points="5166,2172 5166,2253 5225,2348 5226,2414 "/>
			<polyline class="fil0 str2" points="7144,3940 7085,4019 7085,4108 "/>
			<polyline class="fil0 str2" points="7204,3870 7204,3940 7263,4019 7263,4108 "/>
			<path class="fil0 str7" d="M7205 3878c0,-199 -1921,-137 -1922,-1530"/>
			<path class="fil0 str7" d="M7144 3940c0,-199 -1918,-134 -1919,-1527"/>
		</g>
		<g>
			<polyline class="fil0 str6" points="3474,2172 3474,2253 3533,2348 "/>
			<polyline class="fil0 str6" points="3650,2172 3650,2253 3591,2348 3590,2414 "/>
			<polyline class="fil0 str6" points="1248,3542 1306,3462 1307,3374 "/>
			<polyline class="fil0 str6" points="1187,3615 1187,3542 1128,3462 1128,3374 "/>
			<path class="fil0 str6" d="M1187 3615c0,459 2337,-280 2346,-1267"/>
			<path class="fil0 str7" d="M1187 3615c0,459 2337,-280 2346,-1267"/>
			<path class="fil0 str6" d="M1248 3542c0,459 2334,-141 2343,-1128"/>
			<path class="fil0 str7" d="M1248 3542c0,459 2334,-141 2343,-1128"/>
			<polyline class="fil0 str2" points="3474,2172 3474,2253 3533,2348 "/>
			<polyline class="fil0 str2" points="3650,2172 3650,2253 3591,2348 3590,2414 "/>
			<polyline class="fil0 str2" points="1248,3542 1306,3462 1307,3374 "/>
			<polyline class="fil0 str2" points="1187,3612 1187,3542 1128,3462 1128,3374 "/>
		</g>
		<g>
			<polyline class="fil0 str6" points="5909,2169 5909,2250 5851,2345 "/>
			<polyline class="fil0 str6" points="5734,2169 5734,2250 5792,2345 5794,2411 "/>
			<polyline class="fil0 str6" points="8136,3539 8077,3459 8077,3371 "/>
			<polyline class="fil0 str6" points="8197,3612 8197,3539 8255,3459 8255,3371 "/>
			<path class="fil0 str6" d="M8197 3612c0,459 -2337,-280 -2346,-1267"/>
			<path class="fil0 str7" d="M8197 3612c0,459 -2337,-280 -2346,-1267"/>
			<path class="fil0 str6" d="M8136 3539c0,459 -2334,-141 -2343,-1128"/>
			<path class="fil0 str7" d="M8136 3539c0,459 -2334,-141 -2343,-1128"/>
			<polyline class="fil0 str2" points="5909,2169 5909,2250 5851,2345 "/>
			<polyline class="fil0 str2" points="5734,2169 5734,2250 5792,2345 5794,2411 "/>
			<polyline class="fil0 str2" points="8136,3539 8077,3459 8077,3371 "/>
			<polyline class="fil0 str2" points="8197,3609 8197,3539 8255,3459 8255,3371 "/>
		</g>
	</g>
</svg>
